<svg viewBox="0 0 100 100" preserveAspectRatio="xMidYMid meet" class="css-f87xc7" id="cceehgab" width="100px" height="100px" xmlns="http://www.w3.org/2000/svg">
  <defs id="SvgjsDefs1001"></defs>
  <g id="SvgjsG1007" featurekey="pxMwYC-0" transform="matrix(2.000072, 0, 0, 1.837496, -149.517593, -132.305969)" fill="#111" style="">
    <path d="M114.576,100.205c-0.881-1.525-2.979-2.138-5.967-1.81c1.761-2,2.754-4.589,2.754-7.267c0-6.062-4.932-10.992-10.993-10.992  c-6.061,0-10.991,4.931-10.991,10.992c0,3.076,1.306,6.035,3.583,8.117l0.023,0.021c0.066,0.054,0.132,0.112,0.199,0.171  l0.077,0.066c1.171,1.067,1.963,2.478,2.28,4.005c-2.044,1.294-3.824,2.66-5.286,4.024c-2.003-2.071-3.111-3.993-3.245-5.399  c0.187,0.043,0.378,0.07,0.577,0.07c1.427,0,2.588-1.161,2.588-2.589c0-1.427-1.161-2.588-2.588-2.588  c-1.427,0-2.587,1.162-2.587,2.589c0,0.726,0.302,1.38,0.784,1.851c-0.199,1.92,1.144,4.405,3.59,6.933  c-3.064,3.147-4.37,6.197-3.208,8.209c0.725,1.256,2.296,1.906,4.522,1.906c0.581,0,1.218-0.059,1.885-0.147  c0.413,0.882,1.303,1.497,2.339,1.497c1.427,0,2.588-1.159,2.588-2.588c0-1.426-1.161-2.588-2.588-2.588  c-1.384,0-2.509,1.097-2.575,2.465c-2.617,0.341-4.467-0.067-5.1-1.164c-0.77-1.332,0.274-3.877,3.024-6.717  c1.824,1.711,4.12,3.412,6.76,4.936c3.715,2.146,7.54,3.607,10.77,4.115c0.813,0.128,1.568,0.191,2.264,0.191  c2.225,0,3.799-0.652,4.521-1.906c1.16-2.012-0.145-5.063-3.209-8.211C114.538,105.134,115.71,102.168,114.576,100.205z   M87.588,98.265c0.745,0,1.351,0.606,1.351,1.351c0,0.745-0.606,1.352-1.351,1.352s-1.351-0.607-1.351-1.352  C86.237,98.871,86.843,98.265,87.588,98.265z M94.912,115.924c0.745,0,1.352,0.605,1.352,1.352s-0.606,1.352-1.352,1.352  c-0.745,0-1.351-0.605-1.351-1.352S94.167,115.924,94.912,115.924z M113.505,100.823c0.813,1.405-0.356,3.946-3.028,6.7  c-1.461-1.362-3.236-2.726-5.277-4.018c0.281-1.359,0.947-2.617,1.912-3.627C110.384,99.206,112.771,99.551,113.505,100.823z   M96.938,108.764v-0.945h6.869v0.945H96.938z M96.938,106.58v-0.946h6.869v0.946H96.938z M94,98.507  c-0.072-0.063-0.143-0.125-0.214-0.184c-2.015-1.849-3.17-4.47-3.17-7.194c0-5.379,4.376-9.755,9.754-9.755s9.755,4.376,9.755,9.755  c0,2.724-1.157,5.345-3.174,7.195c-0.079,0.066-0.158,0.137-0.237,0.208l-0.063,0.057c-1.655,1.503-2.666,3.593-2.824,5.808h-6.913  c-0.159-2.211-1.167-4.3-2.83-5.815L94,98.507z M91.145,108.404c1.058-0.987,2.315-2,3.768-3v0.229H95.7l0,0v0.946h-0.788v1.236  H95.7v0.947h-0.788V110h10.918v-1.236h-0.787v-0.947h0.787v-1.236h-0.787v-0.946h0.787v-0.229c1.447,0.996,2.699,2.004,3.754,2.988  c-1.805,1.688-4.02,3.32-6.48,4.742c-0.912,0.525-1.832,1.004-2.741,1.438c-0.906-0.435-1.816-0.914-2.722-1.438  C95.005,111.613,92.832,109.984,91.145,108.404z M113.505,115.988c-0.666,1.152-2.679,1.558-5.521,1.109  c-1.885-0.296-3.991-0.939-6.164-1.867c0.635-0.323,1.27-0.66,1.9-1.023c2.563-1.48,4.869-3.186,6.75-4.948  C113.229,112.104,114.275,114.652,113.505,115.988z"></path>
    <rect xmlns="http://www.w3.org/2000/svg" x="97.945" y="110.945" width="4.853" height="1.238"></rect>
    <polygon xmlns="http://www.w3.org/2000/svg" points="99.78,96.58 100.961,96.949 102.975,90.51 99.451,90.51 100.961,85.677 99.78,85.308 97.768,91.747 101.29,91.747   "></polygon>
  </g>
</svg>