<svg viewBox="0 0 200 111.2627164651299" preserveAspectRatio="xMidYMid meet" class="css-f87xc7"
  id="dabahffc" xmlns="http://www.w3.org/2000/svg">
  <defs id="SvgjsDefs1001" />
  <g id="SvgjsG1007" featurekey="symbolFeature-0"
    transform="matrix(1.249993801147684,0,0,1.249993801147684,37.49998807913016,-27.01605035451713)"
    fill="#111">
    <path fill="#111"
      d="M82.91,74.81c-3.23,2.393-7.102,3.317-11.068,3.481c-4.541,0.188-9.115,0.038-13.659,0.041  c-5.573,0.003-11.146-0.006-16.718,0.021c-2.79,0.014-5.58,0.026-8.369,0.005c-2.432-0.019-4.887,0.035-7.307-0.241  c-4.381-0.5-8.351-2.236-11.245-5.643c-2.535-2.982-4.161-6.7-4.485-10.614c-0.343-4.133,0.817-8.354,3.32-11.681  c1.356-1.802,2.981-3.36,4.892-4.571c0.575-0.365,1.163-0.716,1.783-1.002c0.003-0.001,0.004-0.002,0.007-0.003  c-0.021-0.186-0.044-0.371-0.059-0.557c-0.095-1.158-0.026-2.339,0.204-3.479c0.86-4.257,3.871-7.957,7.893-9.624  c2.207-0.915,4.694-1.218,7.057-0.845c2.061,0.326,3.882,1.179,5.586,2.32c1.906-3.055,4.158-5.819,7.271-7.752  c3.205-1.991,7.023-3.063,10.798-3.053c8.08,0.024,15.936,4.859,19.138,12.381c0.906,2.128,1.517,4.389,1.701,6.7  c0.101,1.255,0.07,2.482-0.103,3.728c0,0,2.642,1.426,2.896,1.608c3.636,2.595,6.273,6.427,7.214,10.813  C90.979,63.526,88.433,70.719,82.91,74.81z M20.208,44.53C20.302,44.478,20.267,44.481,20.208,44.53L20.208,44.53z M88.034,57.291  c-0.584-2.725-1.854-5.307-3.733-7.375c-0.957-1.054-2.018-2.018-3.225-2.78c-0.682-0.431-1.381-0.827-2.12-1.152  c-0.424-0.186-0.967-0.496-1.042-1.016c-0.156-1.083,0.16-2.239,0.111-3.345c-0.058-1.27-0.232-2.526-0.544-3.759  c-0.516-2.039-1.292-3.979-2.44-5.748c-2.147-3.304-5.337-5.999-9.02-7.441c-4.265-1.67-9.037-1.853-13.385-0.349  c-2.363,0.818-4.525,2.082-6.361,3.785c-1.868,1.733-3.255,3.752-4.555,5.93c-0.218,0.364-0.776,0.572-1.15,0.301  c-2.693-1.95-5.754-3.161-9.136-2.592c-2.791,0.468-5.295,1.83-7.113,4.02c-2.111,2.542-2.86,5.583-2.576,8.833  c0.116,1.324-1.177,1.568-2.103,2.132c-1.305,0.796-2.524,1.721-3.573,2.837c-2.928,3.114-4.615,7.292-4.378,11.586  c0.216,3.909,1.804,7.801,4.512,10.65c1.432,1.506,3.155,2.832,5.114,3.574c2.26,0.856,4.641,1.148,7.044,1.228  c5.366,0.178,10.747,0.068,16.116,0.045c5.57-0.024,11.141-0.002,16.711-0.01c2.65-0.003,5.3,0.013,7.95,0.012  c2.504,0,5.058-0.055,7.493-0.7C84.714,73.817,89.646,65.434,88.034,57.291z M20.208,44.53  C20.302,44.478,20.267,44.481,20.208,44.53L20.208,44.53z M65.377,49.167c0.152,1.548,0.032,3.145,0.032,4.699  c0,1.606,0,3.212,0,4.818c0,1.637,0,3.273,0,4.91c0,1.147,0.001,2.265-0.652,3.262c-0.559,0.854-1.396,1.538-2.398,1.796  c-0.609,0.157-1.216,0.157-1.842,0.153c-0.77-0.005-1.539-0.001-2.309-0.001c-3.181,0-6.361,0-9.542,0c-1.768,0-3.534,0-5.302,0  c-1.319,0-2.735,0.083-3.909-0.641c-1.116-0.689-1.771-1.83-1.898-3.13c-0.161-1.661-0.049-3.373-0.049-5.04  c0-1.779,0-3.557,0-5.336c0-0.918,0-1.837,0-2.756c0-0.792-0.056-1.608,0.01-2.397c0.091-1.086,0.52-2.171,1.346-2.911  c0.874-0.783,1.898-1.074,3.035-1.113c0.003-0.038,0.005-0.076,0.008-0.114c0.251-2.712,1.347-5.47,3.388-7.334  c2.014-1.839,4.709-2.877,7.444-2.428c4.808,0.79,7.875,5.257,8.271,9.896c1.041,0.03,2.024,0.26,2.859,0.94  C64.725,47.134,65.232,48.077,65.377,49.167z M64.012,49.833c-0.019-1.181-0.587-2.353-1.774-2.764  c-0.664-0.231-1.352-0.18-2.045-0.18c-0.799,0-1.598,0-2.396,0c-1.764,0-3.527,0-5.292,0c-3.456,0-6.912,0-10.368,0  c-0.676,0-1.336,0.025-1.92,0.413c-0.496,0.33-0.904,0.813-1.103,1.38c-0.253,0.726-0.209,1.464-0.209,2.222  c0,0.842,0,1.685,0,2.527c0,3.475-0.023,6.951,0,10.426c0.011,1.507,0.385,3.105,2.109,3.448c0.771,0.154,1.574,0.102,2.356,0.102  c0.823,0,1.647,0,2.472,0c3.526,0,7.053,0,10.579,0c0.896,0,1.792,0,2.688,0c0.789,0,1.607,0.063,2.393-0.012  c1.536-0.147,2.511-1.458,2.511-2.939c0-3.527,0-7.054,0-10.582C64.013,52.527,64.032,51.179,64.012,49.833z M55.438,54.617  c0.139,1.134-0.168,2.574-1.116,3.315c-0.31,0.242-0.475,0.396-0.491,0.812c-0.014,0.317-0.006,0.633,0.016,0.949  c0.04,0.588,0.115,1.19,0.053,1.779c-0.113,1.088-0.627,2.023-1.769,2.259c-0.947,0.195-2.073,0.045-2.626-0.848  c-0.586-0.947-0.477-2.099-0.468-3.164c0.004-0.433,0.108-0.972-0.119-1.366c-0.172-0.297-0.419-0.518-0.629-0.785  c-0.388-0.494-0.675-1.015-0.782-1.639c-0.394-2.292,1.309-4.679,3.695-4.75c2.022-0.06,3.892,1.342,4.228,3.367  c0.002,0.014,0.002,0.027,0.002,0.04C55.434,54.597,55.437,54.606,55.438,54.617z M53.563,53.833  c-0.485-0.692-1.312-1.13-2.161-1.119c-0.912,0.012-1.77,0.468-2.165,1.316c-0.316,0.678-0.439,1.533-0.013,2.195  c0.285,0.443,0.717,0.791,0.948,1.27c0.416,0.861,0.406,1.826,0.36,2.762c-0.031,0.65-0.183,1.925,0.728,1.993  c0.243,0.019,0.594,0.06,0.809-0.083c0.295-0.196,0.29-0.683,0.288-0.999c-0.004-0.501-0.016-1-0.043-1.501  c-0.05-0.903-0.064-1.899,0.664-2.551C53.932,56.301,54.325,54.923,53.563,53.833z M43.316,45.493  c5.429,0.071,10.863,0.003,16.292,0c-0.364-3.893-2.898-7.895-7.009-8.514c-4.328-0.652-8.005,2.723-9.018,6.741  C43.445,44.307,43.358,44.896,43.316,45.493z" />
  </g>
  <g id="SvgjsG1008" featurekey="nameFeature-0"
    transform="matrix(0.698714314911659,0,0,0.698714314911659,-1.8725539108480365,82.78311949671587)"
    fill="#111">
    <path
      d="M26.4 40 l-6.92 0 l-10.24 -17.48 l0.24 17.48 l-6.8 0 l0 -28.24 l6.92 0 l10.32 17.72 l-0.28 -17.72 l6.76 0 l0 28.24 z M52.879999999999995 29.560000000000002 c0 4.72 -2.24 7.44 -3.68 8.64 c-1.2 1 -3.64 2.44 -7.56 2.44 c-1.08 0 -5.32 -0.2 -8.2 -3 c-1.24 -1.2 -3 -3.76 -3 -8.12 c0 -1.2 0.08 -4.6 2.44 -7.44 c1.44 -1.72 4.32 -3.88 9.6 -3.56 c2.44 0.12 4.6 0.68 6.56 2.24 c2.6 2.12 3.84 5.44 3.84 8.8 z M46.64 29.759999999999998 c0 -3.16 -1 -4.76 -2.2 -5.6 c-0.56 -0.4 -1.4 -0.8 -3.04 -0.8 c-0.28 0 -1.44 0.08 -2.32 0.6 c-1.12 0.64 -2.44 2.44 -2.44 5.52 c0 2.04 0.68 3.56 1.08 4.2 c0.48 0.72 1.68 2.04 4 2.04 c3.4 0 4.92 -2.84 4.92 -5.96 z M67.8 23.4 l-4.08 0 l0 9.36 c0 0.84 -0.04 1.32 0.16 1.68 c0.36 0.68 1.32 0.68 1.44 0.68 c0.72 0 1.44 -0.04 2.16 -0.04 l0 4.76 c-0.4 0.08 -1.84 0.32 -3.24 0.32 c-0.44 0 -0.88 0 -1.28 -0.04 c-0.56 -0.04 -2.4 0 -3.8 -1.28 c-1.6 -1.4 -1.52 -3.52 -1.52 -5.44 l0 -10.04 l-3.04 0 l0 -3.76 l3.04 0 l0 -6.52 l6.08 0 l0 6.56 l4.08 0 l0 3.76 z M108.2 40 l-7.52 0 l-1.4 -4.52 l-10.4 0 l-1.4 4.52 l-7.52 0 l10.48 -28.24 l7.36 0 z M97.68 30.4 l-3.68 -11.92 l-3.48 11.92 l7.16 0 z M129.68 40 l-6.16 0 l0 -1.96 c-0.44 0.48 -0.68 0.72 -0.92 0.92 c-0.76 0.6 -2.6 1.64 -5.16 1.64 c-0.48 0 -2.8 0 -4.44 -1.28 c-2.32 -1.84 -2.12 -5.2 -2.12 -7.76 l0 -12.44 l6.2 0 l0 13 c0 1.32 0.04 2.32 1.16 3 c0.36 0.2 0.88 0.48 1.8 0.48 c1.96 0 3 -1.12 3.28 -1.88 c0.2 -0.52 0.24 -1.04 0.24 -1.6 l0 -13 l6.12 0 l0 20.88 z M146.12 23.4 l-4.08 0 l0 9.36 c0 0.84 -0.04 1.32 0.16 1.68 c0.36 0.68 1.32 0.68 1.44 0.68 c0.72 0 1.44 -0.04 2.16 -0.04 l0 4.76 c-0.4 0.08 -1.84 0.32 -3.24 0.32 c-0.44 0 -0.88 0 -1.28 -0.04 c-0.56 -0.04 -2.4 0 -3.8 -1.28 c-1.6 -1.4 -1.52 -3.52 -1.52 -5.44 l0 -10.04 l-3.04 0 l0 -3.76 l3.04 0 l0 -6.52 l6.08 0 l0 6.56 l4.08 0 l0 3.76 z M168.11999999999998 40 l-6.12 0 l0 -10.92 c0 -1.6 0.08 -3.72 -1.44 -4.76 c-0.52 -0.36 -1.12 -0.52 -1.72 -0.52 c-0.32 0 -1.12 0.08 -1.84 0.56 c-1.32 0.92 -1.48 2.36 -1.48 5.24 l0 10.4 l-6.16 0 l0 -28.24 l6.16 0 l0.04 9.56 c0.12 -0.12 0.64 -0.72 1.2 -1.12 c1.92 -1.48 3.84 -1.64 4.72 -1.64 c2.8 0 4.4 1.32 5.08 2.08 c0.44 0.48 0.8 1.08 1 1.68 c0.36 0.92 0.56 1.96 0.56 3.96 l0 13.72 z M194.51999999999998 29.560000000000002 c0 4.72 -2.24 7.44 -3.68 8.64 c-1.2 1 -3.64 2.44 -7.56 2.44 c-1.08 0 -5.32 -0.2 -8.2 -3 c-1.24 -1.2 -3 -3.76 -3 -8.12 c0 -1.2 0.08 -4.6 2.44 -7.44 c1.44 -1.72 4.32 -3.88 9.6 -3.56 c2.44 0.12 4.6 0.68 6.56 2.24 c2.6 2.12 3.84 5.44 3.84 8.8 z M188.27999999999997 29.759999999999998 c0 -3.16 -1 -4.76 -2.2 -5.6 c-0.56 -0.4 -1.4 -0.8 -3.04 -0.8 c-0.28 0 -1.44 0.08 -2.32 0.6 c-1.12 0.64 -2.44 2.44 -2.44 5.52 c0 2.04 0.68 3.56 1.08 4.2 c0.48 0.72 1.68 2.04 4 2.04 c3.4 0 4.92 -2.84 4.92 -5.96 z M210.48 24.32 l-2.04 0.32 c-0.2 0.04 -1.16 0.16 -1.92 0.44 c-1.64 0.56 -1.92 1.6 -1.92 3.16 l0 11.76 l-6.12 0 l0 -20.88 l5.96 0 l0 2.16 c0.52 -0.44 1.08 -1 2.44 -1.56 c1.68 -0.68 2.84 -0.76 3.6 -0.84 l0 5.44 z M219.67999999999998 16.52 l-6.12 0 l0 -4.76 l6.12 0 l0 4.76 z M219.67999999999998 40 l-6.12 0 l0 -20.88 l6.12 0 l0 20.88 z M242.92 40 l-19.08 0 l0 -4.6 l11.28 -11.56 l-10.08 0 l0 -4.72 l17.88 0 l0 4.72 l-11.12 11.4 l11.12 0 l0 4.76 z M266.64 30.84 l-14.92 0 c0 0.2 -0.04 0.68 0.08 1.24 c0.48 2.44 2.2 3.96 4.68 3.96 c0.36 0 1.16 -0.04 2 -0.36 c2.08 -0.72 3 -2.84 3.28 -3.36 l4.64 2.4 c-0.84 1.24 -1.28 1.8 -1.76 2.36 c-3.08 3.4 -7.08 3.68 -8.64 3.68 c-0.64 0 -2.12 -0.04 -3.76 -0.56 c-4.64 -1.44 -6.8 -5.52 -6.8 -10.24 c0 -1.28 0.08 -5.16 2.68 -8.16 c1.28 -1.44 3.48 -3.32 8.04 -3.32 c1.4 0 5.56 0.16 8.16 3.8 c2.36 3.24 2.28 7.56 2.32 8.56 z M260.28 27 c-0.08 -0.68 -0.2 -2.8 -2.28 -3.72 c-0.84 -0.4 -1.52 -0.4 -1.88 -0.4 c-2.44 0 -3.56 1.8 -3.88 2.52 c-0.16 0.36 -0.32 0.8 -0.48 1.6 l8.52 0 z M288.92 40 l-5.6 0 l-0.04 -1.96 c-0.4 0.4 -0.72 0.72 -1.2 1.08 c-1.8 1.32 -3.6 1.44 -4.44 1.44 c-1.4 -0.04 -4.68 -0.44 -6.96 -3.68 c-1 -1.44 -1.96 -3.44 -1.96 -7.2 c0 -1.2 0 -6.64 3.96 -9.56 c0.72 -0.56 2.32 -1.56 4.76 -1.56 c2.92 0 4.68 1.48 5.48 2.12 l0 -8.92 l6 0 l0 28.24 z M283.08000000000004 29.560000000000002 c0 -0.52 0.12 -3.04 -1.04 -4.8 c-0.36 -0.56 -1.4 -1.8 -3.28 -1.56 c-1.16 0.16 -2.08 0.8 -2.72 1.76 c-0.84 1.24 -1.08 3.12 -1.08 4.6 c0 0.4 -0.04 3.16 1.16 4.92 c0.92 1.36 2.16 1.52 2.8 1.52 c0.72 0 1.56 -0.28 2.16 -0.76 c2.12 -1.68 2 -5.16 2 -5.68 z" />
  </g>
</svg>